<?xml version="1.0" encoding="UTF-8"?>
<!DOCTYPE svg PUBLIC "-//W3C//DTD SVG 1.1//EN" "http://www.w3.org/Graphics/SVG/1.1/DTD/svg11.dtd">
<!-- Creator: CorelDRAW X7 -->
<svg xmlns="http://www.w3.org/2000/svg" xml:space="preserve" width="3000px" height="3000px" version="1.1" style="shape-rendering:geometricPrecision; text-rendering:geometricPrecision; image-rendering:optimizeQuality; fill-rule:evenodd; clip-rule:evenodd"
viewBox="0 0 3000 3000"
 xmlns:xlink="http://www.w3.org/1999/xlink">
 <defs>
  <style type="text/css">
   <![CDATA[
    .fil7 {fill:none}
    .fil1 {fill:#0A0D12}
    .fil3 {fill:#252933}
    .fil2 {fill:#515761}
    .fil5 {fill:#7B818C}
    .fil6 {fill:#850303}
    .fil0 {fill:#A80414}
    .fil4 {fill:white}
   ]]>
  </style>
 </defs>
 <g id="Layer_x0020_1">
  <metadata id="CorelCorpID_0Corel-Layer"/>
  <g id="Boom_x0020_Esports.cdr">
   <path class="fil0" d="M2276 1974l266 0 -275 263 0 381 -354 174 0 -150 -17 -1 -392 259 -411 -272c-15,6 -28,10 -41,11l1 146 -358 -166 0 -389 -228 -256 266 0 -104 -459c-23,4 -46,9 -69,13 11,-26 21,-53 31,-79 -50,17 -96,37 -138,61 4,-87 26,-165 61,-234 35,-69 94,-138 179,-214 -38,-68 -51,-169 -42,-299 18,16 36,32 54,48 -41,-91 -36,-244 1,-334 7,12 13,25 20,38 4,-71 20,-132 45,-188 39,-87 96,-173 162,-227 19,118 113,204 204,292 -1,-23 -1,-45 -2,-68 43,41 105,76 177,107 -13,-51 -18,-108 -17,-169 82,54 167,110 268,167l-18 -64c96,28 171,68 223,118 160,-158 243,-212 305,-383 117,120 191,248 195,400 7,-13 13,-34 20,-46 52,116 51,260 7,357 18,-16 36,-32 54,-48 12,105 -4,231 -42,299 85,76 144,145 179,214 35,69 57,147 61,234 -42,-24 -88,-44 -138,-61 10,26 20,53 31,79 -21,-4 -41,-8 -61,-11l-103 457z"/>
   <path class="fil1" d="M2090 189c54,56 102,145 123,227 20,75 22,156 3,244 24,-17 41,-39 54,-64 16,62 8,129 -9,177 -24,65 -69,126 -113,162 49,-2 101,-23 156,-70 4,73 -14,143 -56,209 119,101 218,212 243,361 -63,-31 -135,-50 -217,-55 41,23 78,50 93,96 -135,-22 -269,-12 -372,88 32,-1 58,4 80,14 -59,36 -105,90 -139,162 64,-87 138,-142 225,-155 -23,-12 -46,-23 -69,-35 53,-27 166,-27 221,-2l-108 476 213 0 -202 193 0 371 -254 125 0 -118 -90 -7 -368 243 -398 -264c-33,21 -66,24 -104,28l0 111 -257 -119 0 -376 -167 -187 226 0 -108 -477c54,-25 159,-26 212,2 -23,11 -46,23 -69,34 87,14 161,68 225,156 -34,-72 -80,-127 -139,-163 22,-9 48,-14 80,-14 -103,-100 -237,-110 -372,-88 15,-45 52,-72 93,-96 -82,6 -154,25 -217,55 25,-148 124,-260 243,-360 -42,-66 -60,-136 -56,-209 55,46 107,68 157,70 -45,-36 -90,-98 -114,-162 -17,-48 -25,-116 -9,-177 13,25 30,46 54,63 -19,-87 -17,-168 3,-244 21,-82 69,-170 123,-226 20,42 55,90 103,145 52,59 127,126 201,197 -14,-35 -23,-71 -28,-117 48,36 116,65 195,93 -18,-47 -33,-99 -37,-164 44,36 100,72 160,106 47,26 122,69 153,86l-38 -95c42,16 91,49 149,106 75,-72 167,-151 219,-210 48,-55 83,-104 103,-146z"/>
   <g>
    <polygon class="fil2" points="1400,2564 1274,2564 1504,2716 1735,2564 1608,2564 1504,2632 "/>
    <polygon class="fil3" points="1504,2632 1504,2692 1604,2650 1735,2564 1608,2564 "/>
   </g>
   <g>
    <polygon class="fil2" points="1015,1986 978,1843 1122,1869 851,1717 922,1986 "/>
    <polygon class="fil3" points="2031,1843 1994,1986 2087,1986 2157,1717 1887,1869 "/>
   </g>
   <g>
    <path class="fil4" d="M1902 2321l64 122 72 -112 0 258 105 -50 0 -359 81 -79 -192 0 -62 182 -60 -182 -109 0 0 401c34,4 67,8 101,12l0 -193z"/>
    <path class="fil4" d="M980 2174c8,0 12,5 12,12l0 80c0,8 -3,14 -11,14l-55 4 0 -108c18,-1 36,-1 54,-2zm117 263l0 -105c0,-18 -17,-31 -38,-33 20,-6 33,-21 33,-42l0 -104c0,-18 -10,-52 -57,-52l-286 0 72 81 0 356 105 48 0 -55c33,-6 68,-12 101,-16 43,-6 70,-25 70,-71l0 -7zm-171 -89l54 -5c7,-1 12,2 12,12l0 82c0,7 -4,11 -11,12 -18,3 -36,5 -55,7l0 -108z"/>
    <path class="fil4" d="M1261 2167c15,0 30,-1 45,-1 7,0 10,5 10,8l0 239c0,5 -5,10 -10,10 -15,0 -30,1 -45,2 -4,0 -9,-3 -9,-7l0 -243c0,-5 4,-8 9,-8zm160 -34c-24,-8 -46,-19 -64,-32l-41 0 -64 0 -44 0c-27,0 -60,13 -60,48l0 297c0,38 31,51 70,49 45,-4 91,-6 137,-8 35,-1 66,-18 66,-51l0 -303z"/>
    <path class="fil4" d="M1584 2167c15,0 31,0 46,1 6,0 9,4 9,8l0 239c0,5 -5,9 -9,9 -15,-1 -31,-1 -46,-2 -4,0 -8,-4 -8,-8l0 -238c0,-5 3,-9 8,-9zm-113 -22l0 291c0,33 30,49 66,50 13,0 26,1 39,1 32,1 65,3 98,5 38,2 70,-9 70,-46l0 -297c0,-35 -33,-48 -60,-48l-42 0c-19,14 -43,25 -66,32 -26,9 -55,13 -81,13 -8,0 -16,0 -24,-1z"/>
   </g>
   <path class="fil3" d="M2089 316c83,141 87,277 41,411 6,-90 15,-179 -47,-276 -1,-16 -3,-31 -4,-47 -68,122 -141,219 -215,309 -4,38 -2,75 8,113 19,-42 47,-64 77,-81 -20,54 -18,103 0,150 6,-26 16,-43 28,-58 -1,53 3,101 20,133 2,-5 4,-11 5,-17 27,4 50,3 71,-2 9,-3 18,-6 27,-9 -8,29 -26,51 -47,69 50,7 100,3 150,-8 -29,53 -73,98 -136,131 24,0 49,0 74,-5 15,-2 30,-6 45,-12 74,49 146,107 206,203 -24,-23 -54,-42 -90,-58 -30,-12 -63,-22 -100,-29 29,16 52,37 70,64 -12,-2 -24,-4 -36,-5 -92,-10 -193,-6 -257,19 55,10 104,29 146,58 -90,-6 -170,4 -239,34 40,5 73,14 95,29 -39,27 -73,56 -100,90 -11,-21 -23,-41 -35,-62 -17,94 -49,168 -91,229 -12,-62 -8,-122 26,-179 -36,17 -63,49 -78,104 -11,-52 -7,-99 29,-129 24,-19 46,-37 62,-63 -32,19 -64,29 -94,25 47,-24 81,-43 100,-81 10,-22 27,-35 44,-52 -3,24 -7,47 -10,70 15,-10 34,-29 46,-78 17,-75 44,-99 73,-129 -55,-6 -102,4 -143,26 22,2 44,3 66,5 -20,41 -47,69 -79,85 -18,9 -35,17 -53,26 -31,16 -57,37 -77,71 -63,110 -61,192 -39,268 -1,-43 9,-76 21,-106 6,34 12,67 18,101 10,55 28,96 39,161 6,34 5,78 -20,121 -31,55 -99,113 -158,128 31,-14 64,-38 76,-63 -9,0 -19,0 -28,0 17,-26 41,-44 73,-55 1,-24 -5,-42 -30,-61l-115 0c-33,0 -67,0 -101,0 -24,19 -31,37 -29,61 32,11 56,29 73,55 -9,0 -20,0 -29,0 11,29 40,50 77,63 -81,-15 -139,-74 -172,-128 -15,-24 -23,-51 -17,-85 18,-99 36,-199 54,-298 12,30 21,63 21,106 22,-76 23,-158 -40,-268 -20,-34 -46,-55 -76,-71 -18,-9 -36,-17 -53,-26 -32,-16 -59,-44 -80,-85 23,-2 45,-3 67,-5 -41,-22 -88,-32 -143,-26 28,30 56,54 73,129 12,49 30,68 45,78 -3,-23 -6,-46 -9,-70 17,17 34,30 44,52 19,38 52,57 100,81 -31,4 -62,-6 -95,-25 16,26 39,44 62,63 37,30 41,77 30,129 -15,-55 -43,-87 -78,-104 34,57 37,117 26,179 -43,-61 -75,-135 -92,-229 -11,21 -23,41 -34,62 -27,-34 -61,-63 -101,-90 23,-15 56,-24 95,-29 -56,-25 -121,-36 -192,-36 -15,0 -30,1 -46,2 42,-29 90,-48 146,-58 -65,-25 -166,-29 -259,-19 -11,1 -23,3 -34,5 24,-30 48,-52 73,-65 -85,17 -150,45 -193,88 60,-96 132,-154 206,-203 40,15 80,18 119,17 -63,-33 -107,-78 -136,-131 50,11 99,15 149,8 -21,-18 -38,-40 -46,-69 27,11 59,17 97,11 2,6 4,12 5,17 17,-32 22,-80 20,-133 13,15 23,32 28,58 19,-47 20,-96 0,-150 31,17 59,39 78,81 10,-38 12,-75 8,-113 -74,-90 -147,-187 -215,-309 -2,16 -3,31 -5,47 -61,97 -53,186 -47,276 -45,-134 -41,-270 41,-411 168,232 327,364 481,429 -37,-52 -68,-115 -93,-190 47,23 97,42 151,55 28,23 56,37 84,48 -32,-40 -56,-93 -74,-155 83,49 165,97 248,145 -13,26 -29,48 -45,67 134,-72 273,-198 418,-399z"/>
   <path class="fil2" d="M1825 1395l-31 27c-16,26 -38,44 -62,63 -4,4 -9,9 -13,13 9,15 13,32 15,49 3,-24 27,-45 62,-63 8,16 10,46 12,78 6,-49 13,-94 35,-108 1,2 2,4 3,6 6,11 12,21 18,31 22,-31 44,-60 72,-78 -15,-5 -32,-8 -50,-10 69,-30 149,-40 239,-34 -42,-29 -91,-48 -146,-58 64,-25 165,-29 257,-19 12,1 24,3 36,5 -18,-27 -41,-48 -70,-64 37,7 70,17 100,29 36,16 66,35 90,58 -60,-96 -132,-154 -206,-203 -15,6 -30,10 -45,12 -25,5 -50,5 -74,5 63,-33 107,-78 136,-131 -50,11 -100,15 -150,8 21,-18 39,-40 47,-69 -9,3 -18,6 -27,9 -21,5 -44,6 -71,2 -1,6 -3,12 -5,17 -17,-32 -21,-80 -20,-133 -12,15 -22,32 -28,58 -18,-47 -20,-96 0,-150 -30,17 -58,39 -77,81 -10,-38 -12,-75 -8,-113 74,-90 147,-187 215,-309 1,16 3,31 4,47 62,97 53,186 47,276 46,-134 42,-270 -41,-411 -145,201 -284,327 -418,399 -19,22 -41,39 -64,52 -41,-9 -84,-31 -128,-66 25,92 65,154 116,191 -86,8 -174,5 -269,-44 35,94 84,156 142,199 65,3 135,-16 220,-97 -31,95 -119,242 -184,317 2,23 4,46 6,69 63,-64 132,-108 210,-122 -44,20 -82,85 -114,190 5,32 13,55 26,62 9,-24 20,-49 35,-76 20,-34 46,-55 77,-71 18,-9 35,-17 53,-26 32,-16 59,-44 79,-85 -22,-2 -44,-3 -66,-5 41,-22 88,-32 143,-26 -29,30 -56,54 -73,129 -12,49 -31,68 -46,78l-9 11z"/>
   <g>
    <path class="fil1" d="M1670 1252c1,1 2,2 3,3 4,-5 9,-11 13,-16 -5,4 -10,9 -16,13 -1,1 -2,2 -3,3l0 0 0 0 0 0 0 0 0 0 0 1 0 0 0 0 0 0 0 0 0 0 0 0 0 0 0 0 0 0 1 0 0 0 0 1 0 0 0 0 0 0 0 0 0 0 0 0 0 0 0 0 0 0 0 0 0 0 0 0 0 0 0 1 0 0 0 0 0 0 0 0 0 0 0 0 0 0 0 0 0 0 0 0 0 0 0 0 0 0 0 0 0 0 0 0 0 0 0 0 0 0 1 1 0 0 0 0 0 0 0 0 0 0 0 0 0 0 0 0 0 0 0 0 0 0 0 0 0 0 0 0 0 0 0 0 0 0 0 1 0 0 0 0 0 0 0 0 0 0 0 0 0 0 0 0 0 0 0 0 0 0 0 0 0 0c1,-1 3,-3 4,-5 -1,-1 -2,-2 -3,-3zm-3 3c-32,28 -63,68 -93,126 8,28 23,48 42,62 -5,-10 -8,-23 -10,-39 19,-62 40,-111 63,-144z"/>
    <path class="fil1" d="M1338 1252c0,1 -1,2 -2,3 -5,-5 -9,-11 -14,-16 6,4 11,9 16,13 2,1 3,2 4,3l0 0 0 0 0 0 0 0 0 0 0 1 -1 0 0 0 0 0 0 0 0 0 0 0 0 0 0 0 0 0 0 0 0 0 0 1 0 0 0 0 0 0 0 0 0 0 0 0 0 0 0 0 0 0 0 0 0 0 0 0 0 0 0 1 0 0 0 0 0 0 0 0 0 0 -1 0 0 0 0 0 0 0 0 0 0 0 0 0 0 0 0 0 0 0 0 0 0 0 0 0 0 0 0 1 0 0 0 0 0 0 0 0 0 0 0 0 0 0 0 0 0 0 0 0 0 0 0 0 0 0 0 0 0 0 0 0 0 0 0 1 0 0 0 0 0 0 0 0 0 0 0 0 0 0 -1 0 0 0 0 0 0 0 0 0 0 0c-1,-1 -2,-3 -3,-5 1,-1 2,-2 2,-3zm4 3c32,28 63,68 93,126 -9,28 -23,48 -42,62 4,-10 7,-23 10,-39 -19,-62 -40,-111 -64,-144z"/>
   </g>
   <path class="fil2" d="M617 1320c17,-17 38,-32 62,-44 38,-52 107,-111 174,-150 -10,-2 -20,-5 -30,-9 -74,49 -146,107 -206,203z"/>
   <path class="fil2" d="M771 1292c14,-24 37,-48 70,-72 -11,3 -21,7 -31,12 -25,13 -49,35 -73,65 11,-2 23,-4 34,-5z"/>
   <path class="fil2" d="M1649 1552c6,34 12,67 18,101 10,55 28,96 39,161 6,34 5,78 -20,121 -31,55 -99,113 -158,128 31,-14 64,-38 76,-63 -9,0 -19,0 -28,0 17,-26 41,-44 73,-55 1,-24 -5,-42 -30,-61l-115 0c-22,0 -44,0 -66,0 -11,0 -23,0 -35,0 -2,-38 -4,-77 -6,-115 11,11 23,20 35,27 15,7 30,10 46,8 -29,-27 -45,-60 -52,-97 -5,-24 -6,-50 -5,-77 0,-26 3,-53 6,-80 4,0 17,3 21,5 71,40 97,19 135,-15 12,-11 24,-21 37,-29 -11,54 -5,102 8,147 -1,-43 9,-76 21,-106z"/>
   <path class="fil5" d="M1641 1730c13,49 27,95 24,156 -13,-4 -29,-3 -46,-2 25,19 31,37 30,61 -32,11 -56,29 -73,55 9,0 19,0 28,0 -12,25 -45,49 -76,63 59,-15 127,-73 158,-128 25,-43 26,-87 20,-121 -11,-65 -29,-106 -39,-161 -6,-34 -12,-67 -18,-101 -12,30 -22,63 -21,106 3,28 8,52 13,72z"/>
   <path class="fil5" d="M1853 1214c-15,26 -38,50 -73,69 -43,26 -75,51 -90,76 16,-17 34,-30 54,-40 18,-9 35,-17 53,-26 32,-16 59,-44 79,-85 -18,-1 -36,-3 -54,-4 12,1 26,6 31,10z"/>
   <path class="fil1" d="M1583 1540l-79 33 -78 -33c27,25 53,56 78,87 26,-31 52,-62 79,-87z"/>
   <path class="fil1" d="M1504 1267c38,-44 83,-112 121,-179 -42,38 -82,73 -121,98 -38,-25 -79,-60 -120,-98 37,67 83,135 120,179z"/>
   <path class="fil1" d="M1690 1371c1,-59 -13,-98 -31,-132 26,30 50,62 62,103 -10,9 -21,19 -31,29z"/>
   <path class="fil1" d="M1748 1326c7,-55 -23,-114 -70,-175 39,28 76,64 102,132 0,10 0,20 0,30 -11,4 -22,8 -32,13z"/>
   <path class="fil1" d="M1808 1295c4,-37 -11,-79 -37,-125 29,31 55,63 62,107 -9,6 -17,12 -25,18z"/>
   <path class="fil1" d="M1747 1402c0,16 0,32 0,47 4,-3 8,-6 12,-10 -4,48 -12,91 -26,128 2,-36 0,-72 -2,-113 -4,2 -5,3 -9,5 -1,-11 -1,-22 -1,-33 8,-8 17,-16 26,-24z"/>
   <path class="fil1" d="M1845 1298c6,10 11,20 16,30 18,53 9,89 -2,124 3,-35 0,-66 -15,-86 -3,6 -7,12 -10,18 4,-28 0,-50 -11,-66 8,-7 15,-14 22,-20z"/>
   <path class="fil1" d="M1795 1357c1,7 9,24 12,53 6,-5 12,-10 18,-15 7,66 3,124 -17,167 8,-52 4,-96 -14,-140 -6,5 -11,10 -17,15 -1,-19 -3,-37 -4,-56 7,-8 15,-16 22,-24z"/>
   <path class="fil1" d="M1884 1022c0,-70 -8,-126 -27,-164 2,59 -8,124 -31,194 -2,33 -4,66 -6,99 52,-55 86,-103 96,-142 -11,4 -22,8 -32,13z"/>
   <path class="fil1" d="M1125 1022c0,-70 8,-126 26,-164 -2,59 9,124 31,194 2,33 4,66 6,99 -51,-55 -85,-103 -95,-142 11,4 21,8 32,13z"/>
   <path class="fil5" d="M2025 1028c8,-4 17,-8 28,-17 21,-18 39,-40 47,-69 -9,3 -18,6 -27,9 -14,31 -31,56 -48,77z"/>
   <path class="fil5" d="M2158 1011c-47,66 -104,106 -166,138 17,-1 59,-8 75,-15 63,-33 107,-78 136,-131 -15,3 -30,6 -45,8z"/>
   <path class="fil5" d="M2186 1117c-15,6 -30,10 -45,12 62,34 116,78 161,133 36,16 66,35 90,58 -60,-96 -132,-154 -206,-203z"/>
   <path class="fil5" d="M2272 1297c-18,-27 -41,-48 -70,-64 -25,-14 -55,-24 -89,-30 53,24 101,60 123,89 12,1 24,3 36,5z"/>
   <path class="fil5" d="M1823 892c16,57 12,109 3,160 23,-70 33,-135 31,-194 -1,-23 -3,-45 -8,-66 -15,50 -47,104 -91,136 1,-22 5,-55 -2,-80 -21,30 -50,55 -88,77 29,-7 55,-21 78,-41 -1,38 -5,61 -9,80 33,-17 63,-39 86,-72z"/>
   <path class="fil2" d="M930 1367c22,-20 58,-39 103,-57 -1,1 -2,1 -3,1 -56,10 -104,29 -146,58 16,-1 31,-2 46,-2z"/>
   <path class="fil5" d="M1914 565c57,-48 130,-106 165,-161 1,16 3,31 4,47 62,97 53,186 47,276 46,-134 42,-270 -41,-411 -129,178 -252,297 -372,372 69,-30 135,-72 197,-123z"/>
   <path class="fil2" d="M1258 989c28,74 65,140 111,196 -37,-2 -74,-11 -107,-53 -9,-42 -10,-90 -4,-143z"/>
   <path class="fil2" d="M1193 1249c65,31 127,63 151,111 -13,-62 -48,-103 -94,-134 -27,0 -44,9 -57,23z"/>
   <g>
    <g>
     <path class="fil6" d="M1239 1340c67,39 58,25 77,76 -50,-20 -52,-15 -77,-76z"/>
     <path class="fil0" d="M1302 1410c-12,-26 -9,-24 -54,-48 16,33 23,37 54,48z"/>
    </g>
    <g>
     <path class="fil6" d="M1770 1340c-67,39 -58,25 -78,76 51,-20 52,-15 78,-76z"/>
     <path class="fil0" d="M1706 1410c13,-26 9,-24 55,-48 -16,33 -24,37 -55,48z"/>
    </g>
   </g>
  </g>
  <rect class="fil7" width="3000" height="3000"/>
 </g>
</svg>
